<svg xmlns="http://www.w3.org/2000/svg" viewBox="0 0 24 24" width="24" height="24" fill="none">
  <defs>
    <linearGradient id="cloudGrad" x1="2" y1="2" x2="22" y2="22" gradientUnits="userSpaceOnUse">
      <stop offset="0%" stop-color="#0066FF" />
      <stop offset="100%" stop-color="#38bdf8" />
    </linearGradient>
    <linearGradient id="lockGrad" x1="9" y1="10" x2="15" y2="18" gradientUnits="userSpaceOnUse">
      <stop offset="0%" stop-color="#ffffff" />
      <stop offset="100%" stop-color="#e2e8f0" />
    </linearGradient>
  </defs>
  <path d="M19.35 10.04C18.67 6.59 15.64 4 12 4 9.11 4 6.6 5.64 5.35 8.04 2.34 8.36 0 10.91 0 14c0 3.31 2.69 6 6 6h13c2.76 0 5-2.24 5-5 0-2.64-2.05-4.78-4.65-4.96z" fill="url(#cloudGrad)" />
  <rect x="9" y="11" width="6" height="6" rx="1.5" fill="url(#lockGrad)" />
  <path d="M10 11V9.5C10 8.4 10.9 7.5 12 7.5s2 .9 2 2V11" stroke="#ffffff" stroke-width="1.2" stroke-linecap="round" fill="none" />
  <circle cx="12" cy="13.8" r="0.8" fill="#0066FF" />
</svg>
